HIERARCHY
ROOT hip
{
  OFFSET 8.41971 77.8308 246.887
  CHANNELS 6 Xposition Yposition Zposition Zrotation Xrotation Yrotation
  JOINT abdomen
  {
    OFFSET 0 20.6881 -0.73152
    CHANNELS 3 Zrotation Xrotation Yrotation
    JOINT chest
    {
      OFFSET 0 11.7043 -0.48768
      CHANNELS 3 Zrotation Xrotation Yrotation
      JOINT neck
      {
        OFFSET 0 22.1894 -2.19456
        CHANNELS 3 Zrotation Xrotation Yrotation
        JOINT head
        {
          OFFSET -0.24384 7.07133 1.2192
          CHANNELS 3 Zrotation Xrotation Yrotation
          JOINT leftEye
          {
            OFFSET 4.14528 8.04674 8.04672
            CHANNELS 3 Zrotation Xrotation Yrotation
            End Site
            {
              OFFSET 1 0 0
            }
          }
          JOINT rightEye
          {
            OFFSET -3.6576 8.04674 8.04672
            CHANNELS 3 Zrotation Xrotation Yrotation
            End Site
            {
              OFFSET 1 0 0
            }
          }
        }
      }
      JOINT rCollar
      {
        OFFSET -2.68224 19.2634 -4.8768
        CHANNELS 3 Zrotation Xrotation Yrotation
        JOINT rShldr
        {
          OFFSET -8.77824 -1.95073 1.46304
          CHANNELS 3 Zrotation Xrotation Yrotation
          JOINT rForeArm
          {
            OFFSET -28.1742 -1.7115 0.48768
            CHANNELS 3 Zrotation Xrotation Yrotation
            JOINT rHand
            {
              OFFSET -22.5879 0.773209 7.07136
              CHANNELS 3 Zrotation Xrotation Yrotation
              JOINT rThumb1
              {
                OFFSET -1.2192 -0.487915 3.41376
                CHANNELS 3 Zrotation Xrotation Yrotation
                JOINT rThumb2
                {
                  OFFSET -3.37035 -0.52449 3.41376
                  CHANNELS 3 Zrotation Xrotation Yrotation
                  End Site
                  {
                    OFFSET -1.78271 -1.18214 1.43049
                  }
                }
              }
              JOINT rIndex1
              {
                OFFSET -7.75947 0.938293 5.60832
                CHANNELS 3 Zrotation Xrotation Yrotation
                JOINT rIndex2
                {
                  OFFSET -2.54057 -0.884171 1.56538
                  CHANNELS 3 Zrotation Xrotation Yrotation
                  End Site
                  {
                    OFFSET -1.62519 -0.234802 1.16502
                  }
                }
              }
              JOINT rMid1
              {
                OFFSET -8.24714 1.18213 3.41376
                CHANNELS 3 Zrotation Xrotation Yrotation
                JOINT rMid2
                {
                  OFFSET -3.10165 -0.590103 1.0647
                  CHANNELS 3 Zrotation Xrotation Yrotation
                  End Site
                  {
                    OFFSET -2.48547 -0.328903 0.83742
                  }
                }
              }
              JOINT rRing1
              {
                OFFSET -8.82822 0.546677 1.51678
                CHANNELS 3 Zrotation Xrotation Yrotation
                JOINT rRing2
                {
                  OFFSET -2.60934 -0.819778 -0.0198488
                  CHANNELS 3 Zrotation Xrotation Yrotation
                  End Site
                  {
                    OFFSET -2.33842 -0.294052 0.168128
                  }
                }
              }
              JOINT rPinky1
              {
                OFFSET -8.27202 -0.0477905 -0.4584
                CHANNELS 3 Zrotation Xrotation Yrotation
                JOINT rPinky2
                {
                  OFFSET -1.82734 -0.647385 -0.700984
                  CHANNELS 3 Zrotation Xrotation Yrotation
                  End Site
                  {
                    OFFSET -1.69225 -0.51767 -0.607171
                  }
                }
              }
            }
          }
        }
      }
      JOINT lCollar
      {
        OFFSET 2.68224 19.2634 -4.8768
        CHANNELS 3 Zrotation Xrotation Yrotation
        JOINT lShldr
        {
          OFFSET 8.77824 -1.95073 1.46304
          CHANNELS 3 Zrotation Xrotation Yrotation
          JOINT lForeArm
          {
            OFFSET 28.1742 -1.7115 0.48768
            CHANNELS 3 Zrotation Xrotation Yrotation
            JOINT lHand
            {
              OFFSET 22.5879 0.773209 7.07136
              CHANNELS 3 Zrotation Xrotation Yrotation
              JOINT lThumb1
              {
                OFFSET 1.2192 -0.487915 3.41376
                CHANNELS 3 Zrotation Xrotation Yrotation
                JOINT lThumb2
                {
                  OFFSET 3.37035 -0.52449 3.41376
                  CHANNELS 3 Zrotation Xrotation Yrotation
                  End Site
                  {
                    OFFSET 1.78271 -1.18214 1.43049
                  }
                }
              }
              JOINT lIndex1
              {
                OFFSET 7.75947 0.938293 5.60832
                CHANNELS 3 Zrotation Xrotation Yrotation
                JOINT lIndex2
                {
                  OFFSET 2.54057 -0.884171 1.56538
                  CHANNELS 3 Zrotation Xrotation Yrotation
                  End Site
                  {
                    OFFSET 1.62519 -0.234802 1.16502
                  }
                }
              }
              JOINT lMid1
              {
                OFFSET 8.24714 1.18213 3.41376
                CHANNELS 3 Zrotation Xrotation Yrotation
                JOINT lMid2
                {
                  OFFSET 3.10165 -0.590103 1.0647
                  CHANNELS 3 Zrotation Xrotation Yrotation
                  End Site
                  {
                    OFFSET 2.48547 -0.328903 0.83742
                  }
                }
              }
              JOINT lRing1
              {
                OFFSET 8.82822 0.546677 1.51678
                CHANNELS 3 Zrotation Xrotation Yrotation
                JOINT lRing2
                {
                  OFFSET 2.60934 -0.819778 -0.0198488
                  CHANNELS 3 Zrotation Xrotation Yrotation
                  End Site
                  {
                    OFFSET 2.33842 -0.294052 0.168128
                  }
                }
              }
              JOINT lPinky1
              {
                OFFSET 8.27202 -0.0477905 -0.4584
                CHANNELS 3 Zrotation Xrotation Yrotation
                JOINT lPinky2
                {
                  OFFSET 1.82734 -0.647385 -0.700984
                  CHANNELS 3 Zrotation Xrotation Yrotation
                  End Site
                  {
                    OFFSET 1.69225 -0.51767 -0.607171
                  }
                }
              }
            }
          }
        }
      }
    }
  }
  JOINT rButtock
  {
    OFFSET -8.77824 4.35084 1.2192
    CHANNELS 3 Zrotation Xrotation Yrotation
    JOINT rThigh
    {
      OFFSET 0 -1.70687 -2.19456
      CHANNELS 3 Zrotation Xrotation Yrotation
      JOINT rShin
      {
        OFFSET 0 -36.8199 0.73152
        CHANNELS 3 Zrotation Xrotation Yrotation
        JOINT rFoot
        {
          OFFSET 0.73152 -45.1104 -5.12064
          CHANNELS 3 Zrotation Xrotation Yrotation
          End Site
          {
            OFFSET -1.1221 -3.69964 12.103
          }
        }
      }
    }
  }
  JOINT lButtock
  {
    OFFSET 8.77824 4.35084 1.2192
    CHANNELS 3 Zrotation Xrotation Yrotation
    JOINT lThigh
    {
      OFFSET 0 -1.70687 -2.19456
      CHANNELS 3 Zrotation Xrotation Yrotation
      JOINT lShin
      {
        OFFSET 0 -36.8199 0.73152
        CHANNELS 3 Zrotation Xrotation Yrotation
        JOINT lFoot
        {
          OFFSET -0.73152 -45.1104 -5.12064
          CHANNELS 3 Zrotation Xrotation Yrotation
          End Site
          {
            OFFSET 1.1221 -3.69964 12.103
          }
        }
      }
    }
  }
}
MOTION
Frames:	9
Frame Time:	0.00833333
5.00965 62.3322 82.5094 -10.6079 6.88235 20.4053 8.24684 19.1408 4.16 -2.24353 -13.3012 1.43332 -12.853 10.2568 -11.5534 42.4785 -71.3678 5.51708 -0 0 0 -0 0 0 -1.90859e-013 -4.52767e-014 5.79321e-013 66.3075 54.9672 21.8391 -27.9344 -30.2625 67.7081 -12.4835 -66.5814 -18.9211 -1.13659e-009 2.20268e-009 -7.2597e-010 -1.91738e-009 3.8264e-009 -1.29717e-009 -1.13659e-009 2.20268e-009 -7.25976e-010 7.73091 5.47488 0.417314 -1.13659e-009 2.20268e-009 -7.25969e-010 2.90554 0.965183 0.102902 -1.13658e-009 2.20268e-009 -7.25966e-010 10.2786 0.731801 0.0259123 -1.13659e-009 2.20268e-009 -7.25956e-010 2.22167 -0.733487 -0.20892 -1.9088e-013 -4.5295e-014 5.7928e-013 -75.1969 54.5787 -6.58007 28.4397 -35.5882 -76.2848 2.56673 -40.6734 6.93314 -1.37484e-009 -1.25344e-009 -9.2201e-010 -2.3499e-009 -1.90456e-009 -1.63019e-009 -1.37484e-009 -1.25344e-009 -9.21992e-010 -7.73091 5.47488 -0.417314 -1.37484e-009 -1.25343e-009 -9.21996e-010 -2.90554 0.965183 -0.102902 -1.37485e-009 -1.25342e-009 -9.22e-010 -10.2786 0.731801 -0.0259123 -1.37484e-009 -1.25343e-009 -9.22003e-010 -2.22167 -0.733487 0.20892 -2.03217e-016 0 -3.88251e-019 1.3594 -72.5825 8.46611 -35.1801 88.1915 35.607 -5.31895 -6.46625 -16.1232 2.03217e-016 0 3.88251e-019 38.3721 -70.8704 52.6955 4.29582 78.5493 -4.69294 -0.84178 -9.68805 -4.57975 
4.79675 62.3064 85.142 -10.6264 5.73794 22.0037 8.47111 19.4459 3.72483 -2.30966 -13.4888 1.32523 -12.7439 10.7657 -11.8154 41.8285 -71.8173 4.50975 -0 0 0 -0 0 0 -1.58234e-013 -6.83728e-014 5.24792e-013 62.9419 53.2648 26.3819 -27.9407 -30.2697 67.6793 -13.2582 -67.4276 -19.7604 -9.26394e-010 1.7935e-009 -5.95756e-010 -1.5625e-009 3.12042e-009 -1.06399e-009 -9.26392e-010 1.79351e-009 -5.95762e-010 7.73091 5.47488 0.417314 -9.26396e-010 1.79351e-009 -5.95756e-010 2.90554 0.965183 0.102902 -9.26385e-010 1.79351e-009 -5.95753e-010 10.2786 0.731801 0.0259123 -9.26397e-010 1.79351e-009 -5.95743e-010 2.22167 -0.733487 -0.20892 -1.58242e-013 -6.83912e-014 5.24742e-013 -69.7024 52.3958 -13.0341 28.4296 -35.1992 -75.6751 3.00967 -43.2182 7.58868 -1.13046e-009 -1.97818e-009 -5.31789e-010 -1.93781e-009 -3.18123e-009 -9.50883e-010 -1.13046e-009 -1.97818e-009 -5.3177e-010 -7.73091 5.47488 -0.417314 -1.13046e-009 -1.97817e-009 -5.31773e-010 -2.90554 0.965183 -0.102902 -1.13047e-009 -1.97816e-009 -5.31778e-010 -10.2786 0.731801 -0.0259123 -1.13046e-009 -1.97816e-009 -5.31782e-010 -2.22167 -0.733487 0.20892 -2.03217e-016 0 -3.88251e-019 6.23743 -71.9351 16.2892 -7.92713 83.1607 8.35847 -4.71782 -5.98872 -15.1496 2.03217e-016 0 3.88251e-019 36.5312 -69.3143 49.8862 5.16111 80.2821 -5.72377 -1.25391 -12.3196 -5.07448 
4.63781 62.3591 87.7666 -10.5409 4.3925 23.8063 8.71371 19.7339 3.18843 -2.1793 -13.5374 1.20738 -12.6424 11.3153 -12.0338 40.6759 -72.1526 3.1716 -0 0 0 -0 0 0 -3.47058e-014 -1.56362e-013 4.2287e-013 59.0774 51.4439 30.8132 -27.9974 -30.5697 68.1183 -13.487 -67.6441 -20.0038 -6.47612e-010 1.22126e-009 -3.22618e-010 -1.09719e-009 2.11273e-009 -5.83367e-010 -6.4761e-010 1.22126e-009 -3.22623e-010 7.73091 5.47488 0.417314 -6.47614e-010 1.22126e-009 -3.22619e-010 2.90554 0.965183 0.102902 -6.47604e-010 1.22126e-009 -3.22616e-010 10.2786 0.731801 0.0259123 -6.47616e-010 1.22126e-009 -3.22606e-010 2.22167 -0.733487 -0.20892 -3.47266e-014 -1.56376e-013 4.22772e-013 -63.965 50.8858 -19.4822 28.4198 -35.0844 -75.5249 3.53745 -45.9591 8.34657 -2.39356e-010 -6.3411e-009 -2.15749e-011 -4.19228e-010 -1.08239e-008 -4.0689e-011 -2.39355e-010 -6.3411e-009 -2.15576e-011 -7.73091 5.47488 -0.417314 -2.39352e-010 -6.3411e-009 -2.15606e-011 -2.90554 0.965183 -0.102902 -2.39363e-010 -6.34109e-009 -2.15654e-011 -10.2786 0.731801 -0.0259123 -2.39357e-010 -6.34109e-009 -2.15707e-011 -2.22167 -0.733487 0.20892 -2.03217e-016 0 -3.88251e-019 10.0159 -70.1497 23.4732 -3.93597 77.6913 4.36549 -4.05578 -4.9051 -14.2664 2.03217e-016 0 3.88251e-019 33.8127 -67.6542 45.8313 6.21083 81.7457 -6.89599 -1.71498 -14.7497 -5.62314 
4.51685 62.4402 90.3912 -10.3549 2.87035 25.7608 9.01859 20.0381 2.60016 -1.92309 -13.4811 1.0878 -12.5369 11.9111 -12.2325 39.0171 -72.3663 1.44583 -0 0 0 -0 0 0 1.53621e-013 -2.88037e-013 2.8056e-013 55.0411 49.3421 34.974 -28.0867 -31.1075 68.9548 -13.3346 -67.4549 -19.834 -2.82899e-010 4.58565e-010 7.11188e-011 -4.90424e-010 7.63499e-010 1.07543e-010 -2.82896e-010 4.58568e-010 7.11142e-011 7.73091 5.47488 0.417314 -2.829e-010 4.58567e-010 7.11168e-011 2.90554 0.965183 0.102902 -2.82891e-010 4.58565e-010 7.11183e-011 10.2786 0.731801 0.0259123 -2.82904e-010 4.58563e-010 7.11284e-011 2.22167 -0.733487 -0.20892 1.53573e-013 -2.88041e-013 2.80386e-013 -57.9749 49.5272 -25.8955 28.4225 -35.1965 -75.7073 4.20428 -48.917 9.25812 1.10474e-009 -1.31575e-008 6.00164e-010 1.87396e-009 -2.27623e-008 1.07835e-009 1.10474e-009 -1.31575e-008 6.00177e-010 -7.73091 5.47488 -0.417314 1.10474e-009 -1.31575e-008 6.00174e-010 -2.90554 0.965183 -0.102902 1.10474e-009 -1.31575e-008 6.00172e-010 -10.2786 0.731801 -0.0259123 1.10474e-009 -1.31575e-008 6.00164e-010 -2.22167 -0.733487 0.20892 -2.03217e-016 0 -3.88251e-019 11.842 -67.3069 29.1891 -2.3527 71.8256 2.77312 -3.32273 -3.31877 -13.3433 2.03217e-016 0 3.88251e-019 30.8239 -65.6871 41.1778 7.32335 82.9211 -8.10005 -2.23138 -17.0502 -6.22438 
4.41774 62.5012 93.0293 -10.1349 1.25091 27.8773 9.34269 20.2496 1.94201 -1.59194 -13.3651 0.953402 -12.443 12.5224 -12.4121 36.9913 -72.3461 -0.592077 -0 0 0 -0 0 0 3.24185e-013 -3.91384e-013 7.59303e-014 51.1134 46.7977 38.7696 -28.1691 -31.7032 69.935 -12.654 -66.7059 -19.0953 2.06281e-011 -1.43573e-010 3.26674e-010 1.70027e-011 -2.99815e-010 5.58919e-010 2.06321e-011 -1.43575e-010 3.2667e-010 7.73091 5.47488 0.417314 2.06288e-011 -1.43577e-010 3.26671e-010 2.90554 0.965183 0.102902 2.06347e-011 -1.43578e-010 3.26671e-010 10.2786 0.731801 0.0259123 2.06219e-011 -1.43579e-010 3.26681e-010 2.22167 -0.733487 -0.20892 3.24108e-013 -3.9138e-013 7.56803e-014 -51.8136 47.8878 -32.2023 28.4292 -35.4213 -76.06 4.87028 -51.389 10.1227 2.177e-009 -1.86339e-008 1.05115e-009 3.7045e-009 -3.23804e-008 1.89394e-009 2.17699e-009 -1.86339e-008 1.05116e-009 -7.73091 5.47488 -0.417314 2.177e-009 -1.86339e-008 1.05116e-009 -2.90554 0.965183 -0.102902 2.177e-009 -1.86339e-008 1.05116e-009 -10.2786 0.731801 -0.0259123 2.177e-009 -1.86339e-008 1.05115e-009 -2.22167 -0.733487 0.20892 -2.03217e-016 0 -3.88251e-019 11.9415 -64.0429 32.9219 -1.61501 66.4977 2.02452 -2.72359 -1.79125 -12.6729 2.03217e-016 0 3.88251e-019 28.156 -63.5898 36.577 8.52034 83.8724 -9.36198 -2.82819 -19.1925 -6.94117 
4.31698 62.548 95.6922 -9.95477 -0.386671 30.1651 9.63749 20.2593 1.19785 -1.23696 -13.2343 0.791021 -12.3767 13.1183 -12.5732 34.808 -71.9814 -2.79891 -0 0 0 -0 0 0 3.94425e-013 -3.94393e-013 -2.12948e-013 47.5915 43.6798 42.1252 -28.2268 -32.202 70.7794 -11.4038 -65.2339 -17.736 1.15852e-010 -2.34154e-010 1.85267e-010 1.84306e-010 -4.49772e-010 3.20941e-010 1.15856e-010 -2.34157e-010 1.85264e-010 7.73091 5.47488 0.417314 1.15853e-010 -2.3416e-010 1.85264e-010 2.90554 0.965183 0.102902 1.15858e-010 -2.34162e-010 1.85263e-010 10.2786 0.731801 0.0259123 1.15846e-010 -2.34162e-010 1.85274e-010 2.22167 -0.733487 -0.20892 3.94329e-013 -3.94384e-013 -2.13246e-013 -45.798 45.5967 -38.1683 28.4333 -35.6464 -76.4185 5.27195 -52.6829 10.6245 2.25258e-009 -1.8977e-008 1.04911e-009 3.83514e-009 -3.30625e-008 1.89377e-009 2.25257e-009 -1.8977e-008 1.04912e-009 -7.73091 5.47488 -0.417314 2.25258e-009 -1.89771e-008 1.04911e-009 -2.90554 0.965183 -0.102902 2.25258e-009 -1.89771e-008 1.04911e-009 -10.2786 0.731801 -0.0259123 2.25259e-009 -1.89771e-008 1.0491e-009 -2.22167 -0.733487 0.20892 -2.03217e-016 0 -3.88251e-019 11.2885 -60.9883 34.8322 -1.26538 62.6315 1.6709 -2.40792 -0.896944 -12.5325 2.03217e-016 0 3.88251e-019 26.069 -61.6044 32.3469 9.88903 84.6624 -10.773 -3.53753 -21.1458 -7.83825 
4.20417 62.5636 98.3776 -9.84695 -2.10856 32.7839 9.93223 20.0111 0.261038 -0.794818 -13.0872 0.57741 -12.363 13.7007 -12.7057 32.4807 -71.0767 -5.16902 -0 0 0 -0 0 0 2.99449e-013 -2.14184e-013 -7.17651e-013 44.3971 40.0855 45.3186 -28.2642 -32.564 71.3863 -9.45191 -62.4794 -15.5802 -1.96826e-010 5.86168e-010 -7.33247e-010 -3.1547e-010 1.02917e-009 -1.26655e-009 -1.96821e-010 5.86165e-010 -7.3325e-010 7.73091 5.47488 0.417314 -1.96824e-010 5.86162e-010 -7.33249e-010 2.90554 0.965183 0.102902 -1.96819e-010 5.8616e-010 -7.3325e-010 10.2786 0.731801 0.0259123 -1.96831e-010 5.8616e-010 -7.3324e-010 2.22167 -0.733487 -0.20892 2.99354e-013 -2.14175e-013 -7.17956e-013 -39.8724 42.853 -44.0409 28.435 -35.8897 -76.8112 5.17123 -52.3389 10.4951 5.67178e-010 -1.04136e-008 2.20828e-010 9.62909e-010 -1.82582e-008 4.0832e-010 5.67174e-010 -1.04136e-008 2.20832e-010 -7.73091 5.47488 -0.417314 5.67177e-010 -1.04136e-008 2.20829e-010 -2.90554 0.965183 -0.102902 5.67177e-010 -1.04136e-008 2.2083e-010 -10.2786 0.731801 -0.0259123 5.67185e-010 -1.04136e-008 2.20819e-010 -2.22167 -0.733487 0.20892 -2.03217e-016 0 -3.88251e-019 10.6974 -58.1592 35.4453 -1.12553 60.7303 1.54137 -2.44574 -0.855553 -13.1837 2.03217e-016 0 3.88251e-019 24.4611 -59.8294 28.2059 11.6658 85.3941 -12.5616 -4.45983 -22.9527 -9.06592 
4.08022 62.6829 101.04 -9.7049 -3.86898 35.6973 10.2215 19.5686 -0.819807 -0.262856 -12.9041 0.326407 -12.3877 14.283 -12.8126 30.1855 -69.7353 -7.51037 -0 0 0 -0 0 0 9.75817e-014 8.96113e-014 -1.38457e-012 41.46 36.1395 48.382 -28.2939 -32.8789 71.9066 -7.41412 -58.6553 -13.2501 -7.85487e-010 2.02828e-009 -2.18714e-009 -1.26632e-009 3.61963e-009 -3.78357e-009 -7.85481e-010 2.02828e-009 -2.18714e-009 7.73091 5.47488 0.417314 -7.85485e-010 2.02827e-009 -2.18714e-009 2.90554 0.965183 0.102902 -7.85479e-010 2.02827e-009 -2.18714e-009 10.2786 0.731801 0.0259123 -7.85489e-010 2.02827e-009 -2.18713e-009 2.22167 -0.733487 -0.20892 9.74976e-014 8.96183e-014 -1.38486e-012 -34.0238 39.7499 -49.7429 28.4325 -36.1912 -77.3086 4.72498 -50.8212 9.92858 -2.30229e-009 4.11265e-009 -1.18383e-009 -3.92797e-009 6.90863e-009 -2.11155e-009 -2.30229e-009 4.11265e-009 -1.18383e-009 -7.73091 5.47488 -0.417314 -2.30229e-009 4.11264e-009 -1.18383e-009 -2.90554 0.965183 -0.102902 -2.30229e-009 4.11265e-009 -1.18383e-009 -10.2786 0.731801 -0.0259123 -2.30228e-009 4.11265e-009 -1.18385e-009 -2.22167 -0.733487 0.20892 -2.03217e-016 0 -3.88251e-019 10.2012 -55.3388 35.2352 -1.08628 60.2193 1.52392 -2.74065 -1.34002 -14.4106 2.03217e-016 0 3.88251e-019 23.1648 -58.0802 23.9817 13.6872 86.0057 -14.5655 -5.57573 -24.5992 -10.5574 
3.94354 62.8785 103.636 -9.45729 -5.45631 38.6053 10.4065 19.0061 -1.8287 0.216012 -12.7031 0.0802929 -12.4085 14.8517 -12.9132 28.2278 -68.3091 -9.54193 -0 0 0 -0 0 0 -1.08916e-013 3.75237e-013 -1.95787e-012 39.0136 31.8242 51.0175 -28.3242 -33.2036 72.4243 -5.90866 -54.7954 -11.4372 -1.29997e-009 3.41048e-009 -3.50238e-009 -2.0946e-009 6.09968e-009 -6.05976e-009 -1.29997e-009 3.41048e-009 -3.50238e-009 7.73091 5.47488 0.417314 -1.29997e-009 3.41048e-009 -3.50238e-009 2.90554 0.965183 0.102902 -1.29997e-009 3.41048e-009 -3.50238e-009 10.2786 0.731801 0.0259123 -1.29997e-009 3.41048e-009 -3.50237e-009 2.22167 -0.733487 -0.20892 -1.08991e-013 3.75241e-013 -1.95814e-012 -28.7551 36.0182 -54.604 28.4243 -36.4779 -77.7977 4.20215 -48.8296 9.24525 -5.06882e-009 1.83198e-008 -2.51254e-009 -8.644e-009 3.15428e-008 -4.49755e-009 -5.06882e-009 1.83198e-008 -2.51254e-009 -7.73091 5.47488 -0.417314 -5.06881e-009 1.83198e-008 -2.51254e-009 -2.90554 0.965183 -0.102902 -5.06882e-009 1.83198e-008 -2.51254e-009 -10.2786 0.731801 -0.0259123 -5.06881e-009 1.83198e-008 -2.51256e-009 -2.22167 -0.733487 0.20892 -2.03217e-016 0 -3.88251e-019 9.67265 -52.7438 34.2743 -1.0917 60.402 1.5566 -3.17836 -2.10637 -15.7706 2.03217e-016 0 3.88251e-019 22.1402 -56.2477 19.9708 14.9959 86.3166 -15.8439 -6.70355 -25.979 -12.0365 
